<svg width="1200" height="900" viewBox="0 0 1200 900" fill="none" xmlns="http://www.w3.org/2000/svg">
  <rect width="1200" height="900" fill="#ECE4D7"/>
  <rect x="62" y="62" width="1076" height="776" rx="40" fill="#FCF8F2"/>
  <rect x="124" y="144" width="354" height="572" rx="36" fill="#D8C2A2"/>
  <rect x="542" y="160" width="504" height="160" rx="28" fill="#E8DBCA"/>
  <rect x="542" y="366" width="504" height="72" rx="22" fill="#EFE5D8"/>
  <rect x="542" y="468" width="380" height="72" rx="22" fill="#EFE5D8"/>
  <rect x="542" y="570" width="430" height="72" rx="22" fill="#EFE5D8"/>
  <path d="M210 664C210 484 290 336 382 336C474 336 554 484 554 664H210Z" fill="#8C705B"/>
  <path d="M380 306C346 222 272 170 186 144" stroke="#244A39" stroke-width="24" stroke-linecap="round"/>
  <path d="M412 298C468 222 562 168 654 170" stroke="#244A39" stroke-width="24" stroke-linecap="round"/>
  <path d="M346 392C264 352 202 292 154 216" stroke="#244A39" stroke-width="20" stroke-linecap="round"/>
  <path d="M442 384C536 354 626 292 718 206" stroke="#244A39" stroke-width="20" stroke-linecap="round"/>
</svg>
